<?xml version="1.0" encoding="utf-8"?>
<!-- Generator: Adobe Illustrator 22.0.1, SVG Export Plug-In . SVG Version: 6.00 Build 0)  -->
<svg version="1.1" id="Layer_1" xmlns="http://www.w3.org/2000/svg" xmlns:xlink="http://www.w3.org/1999/xlink" x="0px" y="0px"
	 width="20px" height="20px" viewBox="0 0 20 20" style="enable-background:new 0 0 20 20;" xml:space="preserve">
<style type="text/css">
	.st0{fill-rule:evenodd;clip-rule:evenodd;}
	.st1{fill:#FFFFFF;}
	.st2{fill:#5DB353;}
</style>
<g>
	<rect x="3.4" y="13.3" width="13.1" height="1.4"/>
	<path d="M14.2,8.4c-0.9-0.9-2.1-1.5-3.4-1.7C10.9,6.6,11,6.4,11,6.3c0-0.5-0.4-1-1-1c-0.5,0-1,0.4-1,1c0,0.2,0,0.3,0.1,0.5
		C7.9,6.9,6.7,7.5,5.8,8.4C4.7,9.5,4.1,11,4,12.5h12C15.9,11,15.3,9.5,14.2,8.4L14.2,8.4z M14.2,8.4"/>
</g>
<g>
	<path d="M14.1,7.4c0-0.1-0.1-0.3-0.2-0.4c-0.6-1.5-2-2.1-3.2-2.1c-1.5,0-3.2,1-3.4,3.1v0.4c0,0,0,0.2,0,0.3c0.1,1,0.9,2.1,1.5,3.1
		c0.6,1.1,1.3,2.1,1.9,3.2c0.4-0.7,0.8-1.4,1.2-2.1c0.1-0.2,0.2-0.4,0.3-0.6c0.1-0.1,0.2-0.2,0.3-0.4c0.6-1.2,1.7-2.3,1.7-3.5V8
		C14.2,7.9,14.1,7.4,14.1,7.4L14.1,7.4z M10.7,9.5c-0.4,0-0.9-0.2-1.2-0.8c0-0.1,0-0.3,0-0.3V8.1c0-0.8,0.7-1.1,1.2-1.1
		C11.5,7,12,7.6,12,8.3C12,9,11.5,9.5,10.7,9.5L10.7,9.5z M10.7,9.5"/>
</g>
<g>
	<path d="M12.2,10v1.4c0,0.3,0.1,0.5,0.3,0.5h3.6V9.6h-3.6C12.4,9.6,12.2,9.8,12.2,10L12.2,10z M13.7,10.2c0.3,0,0.5,0.2,0.5,0.5
		c0,0.3-0.2,0.5-0.5,0.5c-0.3,0-0.5-0.2-0.5-0.5C13.2,10.4,13.4,10.2,13.7,10.2L13.7,10.2z M12.5,12.7c-0.6,0-1-0.6-1-1.2V10
		c0-0.7,0.5-1.2,1-1.2h3.6V7.9c0-0.5-0.3-0.9-0.7-1l-0.7-1.7c0-0.1-0.1-0.2-0.2-0.2c-0.1,0-0.2,0-0.3,0L10,6.8H7.5
		c-0.6,0-1.1,0.5-1.1,1.1v5.7c0,0.6,0.5,1.1,1.1,1.1H15c0.6,0,1.1-0.5,1.1-1.1v-0.9H12.5z M14.1,5.8l0.4,1h-2.6L14.1,5.8z M14.1,5.8
		"/>
</g>
<g>
	<path d="M13.8,5.9v-1H8.9v1H7.5v8.8h2.9v-1h2v1h2.9V5.9H13.8z M10.9,12.2h-1v-1h1V12.2z M10.9,10.3h-1v-1h1V10.3z M10.9,8.3h-1v-1
		h1V8.3z M12.8,12.2h-1v-1h1V12.2z M12.8,10.3h-1v-1h1V10.3z M12.8,8.3h-1v-1h1V8.3z M12.8,8.3"/>
</g>
<g>
	<g>
		<path d="M15.7,8.1c-0.1-1.6-1.3-2.8-2.7-2.8c-1,0-1.8,0.5-2.3,1.3c-0.5-0.8-1.3-1.3-2.3-1.3c-1.4,0-2.6,1.2-2.7,2.8
			c0,0.1-0.1,0.5,0.1,1.1c0.2,0.9,0.7,1.7,1.4,2.3l3.5,3.2l3.6-3.2c0.7-0.6,1.2-1.5,1.4-2.3C15.8,8.5,15.7,8.2,15.7,8.1L15.7,8.1z
			 M15.7,8.1"/>
	</g>
</g>
<g>
	<path d="M14.4,11.3c-0.5,0-1,0.3-1.3,0.7l-2.9-1.5c0-0.1,0.1-0.3,0.1-0.4c0-0.2,0-0.3-0.1-0.5L13,8c0.3,0.4,0.8,0.7,1.4,0.7
		c1,0,1.7-0.8,1.7-1.7c0-0.9-0.8-1.7-1.7-1.7c-0.9,0-1.7,0.8-1.7,1.7c0,0.2,0,0.3,0.1,0.4L9.8,8.9C9.5,8.5,9,8.3,8.5,8.3
		c-0.9,0-1.7,0.8-1.7,1.7c0,0.9,0.8,1.7,1.7,1.7c0.6,0,1.1-0.3,1.4-0.7l2.9,1.5c0,0.2-0.1,0.3-0.1,0.5c0,0.9,0.8,1.7,1.7,1.7
		c1,0,1.7-0.8,1.7-1.7C16.1,12,15.3,11.3,14.4,11.3L14.4,11.3z M14.4,11.3"/>
</g>
<g>
	<g>
		<path class="st0" d="M15.3,13.3l-2.1-2.1c0,0,0,0,0,0c0.4-0.6,0.6-1.4,0.6-2.2c0-2.2-1.8-3.9-3.9-3.9S6,6.9,6,9.1
			C6,11.2,7.8,13,9.9,13c0.8,0,1.5-0.2,2.2-0.6c0,0,0,0,0,0l2.1,2.1c0.3,0.3,0.8,0.3,1.1,0C15.6,14.1,15.6,13.6,15.3,13.3L15.3,13.3
			z M9.9,11.6c-1.4,0-2.6-1.1-2.6-2.6s1.1-2.6,2.6-2.6s2.6,1.1,2.6,2.6S11.3,11.6,9.9,11.6L9.9,11.6z M9.9,11.6"/>
	</g>
</g>
<g>
	<path d="M15.5,14.7c0.3,0,0.5-0.1,0.7-0.3L12.8,11c-0.1,0.1-0.2,0.1-0.2,0.2c-0.3,0.2-0.5,0.3-0.6,0.4c-0.2,0.1-0.4,0.2-0.6,0.3
		c-0.3,0.1-0.5,0.2-0.7,0.2h0c-0.2,0-0.5-0.1-0.7-0.2c-0.3-0.1-0.5-0.2-0.6-0.3c-0.2-0.1-0.4-0.3-0.6-0.4c-0.1-0.1-0.1-0.1-0.2-0.2
		l-3.4,3.4c0.2,0.2,0.4,0.3,0.7,0.3H15.5z M15.5,14.7"/>
	<path d="M5.2,8.9C5,8.7,4.7,8.5,4.5,8.3v5.2l3-3C6.9,10.1,6.2,9.6,5.2,8.9L5.2,8.9z M5.2,8.9"/>
	<path d="M15.9,8.9c-0.9,0.6-1.7,1.1-2.3,1.6l3,3V8.3C16.3,8.5,16.1,8.7,15.9,8.9L15.9,8.9z M15.9,8.9"/>
	<path d="M15.5,5.3H5.6C5.3,5.3,5,5.4,4.8,5.6C4.6,5.9,4.5,6.2,4.5,6.5c0,0.3,0.1,0.6,0.4,0.9C5.1,7.7,5.4,8,5.7,8.2
		c0.2,0.1,0.6,0.4,1.4,1c0.4,0.3,0.8,0.5,1.1,0.7c0.3,0.2,0.5,0.3,0.7,0.5c0,0,0.1,0,0.1,0.1c0,0,0.1,0.1,0.2,0.1
		c0.1,0.1,0.3,0.2,0.4,0.3C9.6,10.9,9.7,11,9.8,11c0.1,0.1,0.3,0.1,0.4,0.2c0.1,0,0.2,0.1,0.3,0.1h0c0.1,0,0.2,0,0.3-0.1
		c0.1,0,0.2-0.1,0.4-0.2c0.1-0.1,0.3-0.2,0.3-0.2c0.1-0.1,0.2-0.1,0.4-0.3c0.1-0.1,0.1-0.1,0.2-0.1c0,0,0.1-0.1,0.1-0.1
		c0.1-0.1,0.4-0.3,0.7-0.5c0.6-0.4,1.4-1,2.5-1.7C15.7,8,16,7.7,16.2,7.4c0.2-0.3,0.3-0.7,0.3-1c0-0.3-0.1-0.5-0.3-0.8
		C16,5.4,15.8,5.3,15.5,5.3L15.5,5.3z M15.5,5.3"/>
</g>
<g>
	<path d="M15.5,8.2c0,0.1,0,0.2,0,0.3c0,2.9-2.2,6.3-6.3,6.3c-1.3,0-2.4-0.4-3.4-1c0.2,0,0.4,0,0.5,0c1,0,2-0.4,2.8-1
		c-1,0-1.8-0.7-2.1-1.5c0.1,0,0.3,0,0.4,0c0.2,0,0.4,0,0.6-0.1c-1-0.2-1.8-1.1-1.8-2.2c0,0,0,0,0,0c0.3,0.2,0.6,0.3,1,0.3
		c-0.6-0.4-1-1.1-1-1.9c0-0.4,0.1-0.8,0.3-1.1c1.1,1.3,2.7,2.2,4.6,2.3C11,8.6,11,8.4,11,8.3C11,7,12,6,13.2,6
		c0.6,0,1.2,0.3,1.6,0.7c0.5-0.1,1-0.3,1.4-0.5c-0.2,0.5-0.5,1-1,1.2c0.5-0.1,0.9-0.2,1.3-0.3C16.3,7.5,15.9,7.9,15.5,8.2L15.5,8.2z
		 M15.5,8.2"/>
</g>
<path d="M9.1,14.6c-1.1,0-1.9-0.7-1.9-1.5c0-0.8,1-1.5,2.1-1.5c0.3,0,0.5,0,0.7,0.1c0.6,0.4,1,0.7,1.1,1.1c0,0.1,0,0.2,0,0.3
	C11.2,14,10.7,14.6,9.1,14.6 M9.4,9.7C8.7,9.7,8,8.9,7.9,7.9C7.7,6.9,8.2,6.2,9,6.2c0.7,0,1.4,0.8,1.6,1.8C10.7,9,10.2,9.7,9.4,9.7
	 M11,11.1c-0.3-0.2-0.8-0.6-0.8-0.9c0-0.3,0.1-0.5,0.6-0.8c0.5-0.4,0.8-0.9,0.8-1.5c0-0.7-0.3-1.4-0.9-1.7h0.9l0.6-0.5H9.3
	c-1.3,0-2.5,1-2.5,2.1C6.8,9.1,7.7,10,9,10c0.1,0,0.2,0,0.3,0c-0.1,0.2-0.1,0.3-0.1,0.5c0,0.3,0.2,0.6,0.4,0.8c-0.2,0-0.3,0-0.5,0
	c-1.6,0-2.8,1-2.8,2.1c0,1,1.3,1.7,2.9,1.7c1.8,0,2.8-1,2.8-2.1C12,12.2,11.7,11.7,11,11.1 M15.1,9.8H14V8.7h-0.9v1.1H12v0.9h1.1
	v1.1H14v-1.1h1.1V9.8z"/>
<g>
	<path d="M15.1,12.3v1.5H7.3v-1.5c0-0.7-1-0.7-1,0v2c0,0.1,0,0.2,0.1,0.3c0.1,0.1,0.2,0.2,0.4,0.2h8.8c0.1,0,0.2,0,0.3-0.1
		c0.1-0.1,0.2-0.2,0.2-0.4v-2C16.1,11.7,15.1,11.7,15.1,12.3L15.1,12.3z M15.1,12.3"/>
	<path d="M13.4,8.9h-1.7V6.3c0-1-1.5-1-1.5,0v2.6H8.6c0,0,0,0,0,0C8.5,8.9,8.4,9,8.4,9c0,0.1,0,0.2,0,0.3c0,0,0,0,0,0
		c0.8,0.8,1.6,1.6,2.4,2.4c0.1,0.1,0.3,0.1,0.4,0c0.8-0.8,1.6-1.6,2.4-2.4C13.8,9.2,13.7,8.9,13.4,8.9L13.4,8.9z M13.4,8.9"/>
</g>
<g>
	<path class="st1" d="M10.1,4.6L10.1,4.6c2.9,0,5.2,1.9,5.2,4.2c0,2.3-2.3,4.2-5.2,4.2c-0.3,0-0.5,0-0.8-0.1
		c-1.1,1.1-2.4,1.3-3.7,1.3V14c0.7-0.3,1.3-1,1.3-1.7c0-0.1,0-0.2,0-0.3c-1.2-0.8-1.9-1.9-1.9-3.3C4.9,6.5,7.3,4.6,10.1,4.6
		L10.1,4.6z"/>
	<path class="st2" d="M15.7,14c0,0.6,0.4,1.1,1,1.4v0.2c-1.1,0-2.1-0.2-3.1-1.1c-0.2,0-0.5,0-0.7,0c-1,0-2-0.3-2.7-0.7
		c1.6,0,3-0.5,4.2-1.4c0.6-0.5,1-1,1.3-1.6c0.3-0.6,0.5-1.3,0.5-2c0-0.1,0-0.2,0-0.3c0.8,0.6,1.3,1.5,1.3,2.5c0,1.1-0.6,2.1-1.7,2.8
		C15.7,13.9,15.7,13.9,15.7,14L15.7,14z"/>
</g>
<g>
	<path d="M7.1,13.5l2.7-3.3L7.3,7.2C7.1,7,6.9,6.7,6.9,6.4c0-0.6,0.5-1.1,1.1-1.1c0.5,0,0.7,0.2,1,0.5l2.2,2.9L13.3,6
		c0.3-0.4,0.6-0.6,1.1-0.6s1,0.4,1,1c0,0.3-0.1,0.6-0.3,0.8l-2.5,3.1l2.6,3.2c0.2,0.2,0.3,0.5,0.3,0.8c0,0.6-0.5,1.1-1.1,1.1
		c-0.5,0-0.7-0.2-1-0.5l-2.3-3l-2.3,3c-0.3,0.4-0.6,0.6-1.1,0.6c-0.5,0-1-0.4-1-1C6.8,14.1,6.9,13.8,7.1,13.5z"/>
</g>
</svg>
