<?xml version="1.0" encoding="utf-8"?>
<!-- Generator: Adobe Illustrator 22.0.1, SVG Export Plug-In . SVG Version: 6.00 Build 0)  -->
<svg version="1.1" id="Layer_1" xmlns="http://www.w3.org/2000/svg" xmlns:xlink="http://www.w3.org/1999/xlink" x="0px" y="0px"
	 width="102.8px" height="102.8px" viewBox="0 0 102.8 102.8" style="enable-background:new 0 0 102.8 102.8;" xml:space="preserve"
	>
<style type="text/css">
	.st0{fill:#0D1F28;}
	.st1{fill:#FFFFFF;}
	.st2{fill:#5DB353;}
</style>
<g>
	<rect class="st0" width="102.8" height="102.8"/>
	<g>
		<path class="st1" d="M25.1,40h0.3v3h-0.3c-0.1-0.3-0.2-0.6-0.4-0.9c-0.8,0.9-1.7,1.3-2.9,1.3c-1.2,0-2.3-0.4-3-1.2
			c-0.8-0.8-1.2-1.8-1.2-3.1c0-0.8,0.2-1.6,0.5-2.4c0.4-0.7,0.9-1.3,1.5-1.7c0.6-0.4,1.4-0.5,2.1-0.5c0.6,0,1.2,0.1,1.7,0.4
			c0.5,0.3,0.9,0.6,1.2,0.9c0.2-0.4,0.3-0.7,0.3-1.1h0.3l0.1,3.2h-0.3c-0.2-1.2-0.6-2-1.2-2.4c-0.6-0.5-1.2-0.7-2-0.7
			c-0.9,0-1.6,0.4-2.1,1.1c-0.5,0.7-0.8,1.8-0.8,3.1c0,1.3,0.3,2.3,0.9,3c0.6,0.7,1.3,1,2.2,1c0.5,0,0.9-0.1,1.4-0.3
			c0.5-0.2,0.9-0.6,1.1-1.1C24.9,41,25,40.5,25.1,40z"/>
		<path class="st1" d="M40.4,38.9h-4.5V41c0,0.7,0,1.1,0.1,1.3c0,0.2,0.1,0.4,0.3,0.5c0.1,0.1,0.4,0.2,0.8,0.2h0.2v0.3h-3.9v-0.3
			h0.2c0.4,0,0.6,0,0.8-0.1s0.2-0.2,0.3-0.4c0-0.2,0.1-0.7,0.1-1.4v-4.2c0-0.7,0-1.1-0.1-1.3s-0.1-0.3-0.3-0.4
			C34.2,35,33.9,35,33.5,35h-0.2v-0.3h3.9V35H37c-0.4,0-0.7,0-0.8,0.1c-0.1,0.1-0.2,0.2-0.3,0.4c0,0.2-0.1,0.6-0.1,1.4v1.7h4.5v-1.7
			c0-0.7,0-1.1-0.1-1.3c0-0.2-0.1-0.3-0.2-0.4C39.9,35,39.6,35,39.2,35H39v-0.3h3.9V35h-0.1c-0.4,0-0.7,0-0.8,0.1
			c-0.1,0.1-0.2,0.2-0.3,0.4c0,0.2-0.1,0.6-0.1,1.4V41c0,0.7,0,1.1,0,1.3c0,0.2,0.1,0.4,0.3,0.5c0.1,0.1,0.4,0.2,0.8,0.2h0.2v0.3H39
			v-0.3h0.3c0.4,0,0.6,0,0.8-0.1s0.2-0.2,0.3-0.4c0-0.2,0.1-0.7,0.1-1.4V38.9z"/>
		<path class="st1" d="M57.4,40.6h0.3l-0.2,2.7h-7.1v-0.3h0.2c0.4,0,0.7-0.1,0.8-0.2c0.1-0.1,0.2-0.3,0.2-0.4c0-0.2,0.1-0.6,0.1-1.3
			v-4.2c0-0.7,0-1.1-0.1-1.3c0-0.2-0.1-0.4-0.2-0.4C51.3,35,51,35,50.6,35v-0.3h6.1l0.2,2.1h-0.3c-0.1-0.6-0.3-1-0.5-1.3
			c-0.2-0.3-0.4-0.4-0.7-0.5C55.2,35,54.8,35,54.2,35H53v3.6h0.9c0.4,0,0.7,0,0.9-0.1c0.2-0.1,0.3-0.2,0.3-0.3
			c0.1-0.1,0.1-0.4,0.1-0.9h0.3v2.9h-0.3c0-0.5,0-0.8-0.1-1c-0.1-0.2-0.2-0.3-0.4-0.3c-0.2,0-0.4-0.1-0.8-0.1H53v2
			c0,1,0.1,1.6,0.2,1.8c0.1,0.2,0.5,0.3,1.1,0.3h0.6c0.5,0,0.8-0.1,1.1-0.2c0.3-0.1,0.6-0.4,0.8-0.7C57.1,41.7,57.3,41.2,57.4,40.6z
			"/>
		<path class="st1" d="M71.9,34.7l0.1,2.1h-0.3c-0.1-0.5-0.2-0.9-0.4-1.2c-0.2-0.3-0.4-0.5-0.6-0.6C70.4,35,70,35,69.5,35h-1.7v3.6
			h0.8c0.5,0,0.9-0.1,1-0.3c0.2-0.2,0.3-0.5,0.3-1.1h0.3v3h-0.3c0-0.4,0-0.7-0.1-0.9c-0.1-0.2-0.2-0.4-0.3-0.4
			c-0.1-0.1-0.4-0.1-0.9-0.1h-0.8V41c0,0.7,0,1.1,0.1,1.3c0,0.2,0.1,0.4,0.3,0.5c0.1,0.1,0.4,0.2,0.8,0.2h0.3v0.3h-4v-0.3h0.3
			c0.4,0,0.6,0,0.8-0.1s0.2-0.2,0.3-0.4c0-0.2,0.1-0.7,0.1-1.4v-4.2c0-0.7,0-1.1-0.1-1.3c0-0.2-0.1-0.3-0.3-0.4
			C66.1,35,65.9,35,65.4,35h-0.2v-0.3H71.9z"/>
		<path class="st1" d="M79.5,43.1v-2.8h0.3c0.4,1.8,1.2,2.7,2.5,2.7c0.6,0,1.1-0.2,1.4-0.5c0.3-0.3,0.5-0.7,0.5-1.2
			c0-0.4-0.1-0.8-0.4-1.1c-0.3-0.3-0.8-0.6-1.6-0.9c-0.7-0.3-1.2-0.6-1.6-0.8c-0.3-0.2-0.6-0.5-0.8-0.9c-0.2-0.4-0.3-0.7-0.3-1.1
			c0-0.6,0.2-1.1,0.6-1.5c0.4-0.4,1-0.6,1.6-0.6c0.4,0,0.7,0.1,1,0.2c0.3,0.1,0.6,0.4,1,0.7c0.2-0.2,0.3-0.5,0.3-0.8h0.3v2.2h-0.3
			c-0.2-0.7-0.4-1.2-0.9-1.5c-0.4-0.4-0.9-0.6-1.4-0.6c-0.5,0-0.9,0.1-1.1,0.4c-0.2,0.3-0.4,0.6-0.4,0.9c0,0.4,0.1,0.7,0.4,1
			c0.3,0.3,0.8,0.6,1.6,0.9c0.7,0.3,1.3,0.6,1.6,0.8c0.3,0.2,0.6,0.5,0.8,0.8s0.3,0.8,0.3,1.2c0,0.7-0.2,1.3-0.7,1.8
			c-0.5,0.5-1.1,0.7-2,0.7c-0.9,0-1.7-0.4-2.4-1.1c-0.1,0.2-0.2,0.5-0.3,0.8H79.5z"/>
		<path class="st1" d="M25.1,66h0.3v3h-0.3c-0.1-0.3-0.2-0.6-0.4-0.9c-0.8,0.9-1.7,1.3-2.9,1.3c-1.2,0-2.3-0.4-3-1.2
			s-1.2-1.8-1.2-3.1c0-0.8,0.2-1.6,0.5-2.4c0.4-0.7,0.9-1.3,1.5-1.7c0.6-0.4,1.4-0.5,2.1-0.5c0.6,0,1.2,0.1,1.7,0.4
			c0.5,0.3,0.9,0.6,1.2,0.9c0.2-0.4,0.3-0.7,0.3-1.1h0.3l0.1,3.2h-0.3c-0.2-1.2-0.6-2-1.2-2.4c-0.6-0.5-1.2-0.7-2-0.7
			c-0.9,0-1.6,0.4-2.1,1.1C19.3,62.6,19,63.7,19,65c0,1.3,0.3,2.3,0.9,3c0.6,0.7,1.3,1,2.2,1c0.5,0,0.9-0.1,1.4-0.3
			c0.5-0.2,0.9-0.6,1.1-1.1C24.9,67,25,66.5,25.1,66z"/>
		<path class="st1" d="M40.4,64.9h-4.5V67c0,0.7,0,1.1,0.1,1.3c0,0.2,0.1,0.4,0.3,0.5c0.1,0.1,0.4,0.2,0.8,0.2h0.2v0.3h-3.9v-0.3
			h0.2c0.4,0,0.6,0,0.8-0.1s0.2-0.2,0.3-0.4c0-0.2,0.1-0.7,0.1-1.4v-4.2c0-0.7,0-1.1-0.1-1.3s-0.1-0.3-0.3-0.4
			c-0.1-0.1-0.4-0.1-0.8-0.1h-0.2v-0.3h3.9v0.3H37c-0.4,0-0.7,0-0.8,0.1c-0.1,0.1-0.2,0.2-0.3,0.4c0,0.2-0.1,0.6-0.1,1.4v1.7h4.5
			v-1.7c0-0.7,0-1.1-0.1-1.3c0-0.2-0.1-0.3-0.2-0.4c-0.1-0.1-0.4-0.1-0.8-0.1H39v-0.3h3.9v0.3h-0.1c-0.4,0-0.7,0-0.8,0.1
			c-0.1,0.1-0.2,0.2-0.3,0.4c0,0.2-0.1,0.6-0.1,1.4V67c0,0.7,0,1.1,0,1.3c0,0.2,0.1,0.4,0.3,0.5c0.1,0.1,0.4,0.2,0.8,0.2h0.2v0.3H39
			v-0.3h0.3c0.4,0,0.6,0,0.8-0.1s0.2-0.2,0.3-0.4c0-0.2,0.1-0.7,0.1-1.4V64.9z"/>
		<path class="st1" d="M57.4,66.5h0.3l-0.2,2.7h-7.1v-0.3h0.2c0.4,0,0.7-0.1,0.8-0.2c0.1-0.1,0.2-0.3,0.2-0.4c0-0.2,0.1-0.6,0.1-1.3
			v-4.2c0-0.7,0-1.1-0.1-1.3c0-0.2-0.1-0.4-0.2-0.4c-0.1-0.1-0.4-0.1-0.8-0.1v-0.3h6.1l0.2,2.1h-0.3c-0.1-0.6-0.3-1-0.5-1.3
			c-0.2-0.3-0.4-0.4-0.7-0.5c-0.3-0.1-0.7-0.1-1.3-0.1H53v3.6h0.9c0.4,0,0.7,0,0.9-0.1c0.2-0.1,0.3-0.2,0.3-0.3
			c0.1-0.1,0.1-0.4,0.1-0.9h0.3v2.9h-0.3c0-0.5,0-0.8-0.1-1c-0.1-0.2-0.2-0.3-0.4-0.3c-0.2,0-0.4-0.1-0.8-0.1H53v2
			c0,1,0.1,1.6,0.2,1.8c0.1,0.2,0.5,0.3,1.1,0.3h0.6c0.5,0,0.8-0.1,1.1-0.2c0.3-0.1,0.6-0.4,0.8-0.7C57.1,67.7,57.3,67.2,57.4,66.5z
			"/>
		<path class="st1" d="M71.9,60.6l0.1,2.1h-0.3c-0.1-0.5-0.2-0.9-0.4-1.2c-0.2-0.3-0.4-0.5-0.6-0.6c-0.2-0.1-0.6-0.1-1.1-0.1h-1.7
			v3.6h0.8c0.5,0,0.9-0.1,1-0.3c0.2-0.2,0.3-0.5,0.3-1.1h0.3v3h-0.3c0-0.4,0-0.7-0.1-0.9c-0.1-0.2-0.2-0.4-0.3-0.4
			c-0.1-0.1-0.4-0.1-0.9-0.1h-0.8V67c0,0.7,0,1.1,0.1,1.3c0,0.2,0.1,0.4,0.3,0.5c0.1,0.1,0.4,0.2,0.8,0.2h0.3v0.3h-4v-0.3h0.3
			c0.4,0,0.6,0,0.8-0.1s0.2-0.2,0.3-0.4c0-0.2,0.1-0.7,0.1-1.4v-4.2c0-0.7,0-1.1-0.1-1.3c0-0.2-0.1-0.3-0.3-0.4
			c-0.1-0.1-0.4-0.1-0.8-0.1h-0.2v-0.3H71.9z"/>
		<path class="st1" d="M79.5,69.1v-2.8h0.3c0.4,1.8,1.2,2.7,2.5,2.7c0.6,0,1.1-0.2,1.4-0.5c0.3-0.3,0.5-0.7,0.5-1.2
			c0-0.4-0.1-0.8-0.4-1.1c-0.3-0.3-0.8-0.6-1.6-0.9c-0.7-0.3-1.2-0.6-1.6-0.8c-0.3-0.2-0.6-0.5-0.8-0.9c-0.2-0.4-0.3-0.7-0.3-1.1
			c0-0.6,0.2-1.1,0.6-1.5c0.4-0.4,1-0.6,1.6-0.6c0.4,0,0.7,0.1,1,0.2c0.3,0.1,0.6,0.4,1,0.7c0.2-0.2,0.3-0.5,0.3-0.8h0.3v2.2h-0.3
			c-0.2-0.7-0.4-1.2-0.9-1.5c-0.4-0.4-0.9-0.6-1.4-0.6c-0.5,0-0.9,0.1-1.1,0.4c-0.2,0.3-0.4,0.6-0.4,0.9c0,0.4,0.1,0.7,0.4,1
			c0.3,0.3,0.8,0.6,1.6,0.9c0.7,0.3,1.3,0.6,1.6,0.8c0.3,0.2,0.6,0.5,0.8,0.8s0.3,0.8,0.3,1.2c0,0.7-0.2,1.3-0.7,1.8
			c-0.5,0.5-1.1,0.7-2,0.7c-0.9,0-1.7-0.4-2.4-1.1c-0.1,0.2-0.2,0.5-0.3,0.8H79.5z"/>
	</g>
	<g>
		<path class="st2" d="M23.5,50l-0.1,0.3h-1l-0.9,3.4c-0.4,1.5-0.9,2.6-1.3,3.1c-0.5,0.5-1,0.8-1.6,0.8c-0.3,0-0.6-0.1-0.9-0.2
			c-0.3-0.1-0.4-0.3-0.4-0.6c0-0.1,0-0.2,0.1-0.3c0.1-0.1,0.2-0.1,0.3-0.1c0.1,0,0.2,0,0.3,0.1c0.1,0.1,0.1,0.2,0.1,0.3
			c0,0,0,0.1,0,0.1l0,0.1c0,0.1,0,0.1,0.1,0.2c0.1,0.1,0.2,0.1,0.3,0.1c0.5,0,0.8-0.2,1.2-0.7c0.3-0.5,0.7-1.5,1.1-3l0.9-3.3h-1.1
			l0.1-0.3h1.1c0,0,0-0.2,0.1-0.3c0.5-1.9,1.4-2.9,2.5-2.9c0.3,0,0.6,0.1,0.8,0.2s0.3,0.3,0.3,0.4c0,0.2-0.1,0.3-0.3,0.3
			c-0.2,0-0.3-0.1-0.5-0.4c-0.1-0.2-0.3-0.3-0.4-0.3c-0.3,0-0.5,0.1-0.7,0.4c-0.2,0.2-0.5,0.9-0.8,2L22.5,50H23.5z"/>
		<path class="st2" d="M27.9,53.2c0-0.5,0.1-1,0.3-1.5c0.2-0.5,0.5-1,0.9-1.3c0.4-0.3,0.8-0.5,1.2-0.5c0.3,0,0.6,0.1,0.8,0.4
			c0.2,0.3,0.3,0.7,0.3,1.2c0,0.6-0.1,1.2-0.4,1.7c-0.2,0.5-0.6,1-0.9,1.2c-0.4,0.3-0.7,0.4-1.1,0.4c-0.3,0-0.6-0.1-0.8-0.4
			C28,54.2,27.9,53.8,27.9,53.2z M28.5,53.8c0,0.2,0.1,0.4,0.2,0.5c0.1,0.1,0.3,0.2,0.4,0.2c0.5,0,0.9-0.5,1.3-1.5s0.5-1.7,0.5-2.2
			c0-0.3-0.1-0.5-0.2-0.6c-0.1-0.1-0.3-0.2-0.5-0.2c-0.5,0-0.9,0.5-1.2,1.4C28.7,52.3,28.5,53.1,28.5,53.8z"/>
		<path class="st2" d="M37.1,51.4h-0.3c0.2-0.4,0.4-0.8,0.6-1.1c0.2-0.3,0.5-0.5,0.7-0.5c0.2,0,0.3,0.1,0.4,0.2
			c0.1,0.1,0.1,0.3,0.1,0.6c0,0.3-0.1,0.8-0.3,1.4c0,0,0.1-0.2,0.2-0.4c0.3-0.6,0.5-1.1,0.7-1.4c0.2-0.3,0.4-0.4,0.6-0.4
			c0.1,0,0.2,0,0.3,0.1c0.1,0.1,0.1,0.2,0.1,0.3c0,0.1,0,0.2-0.1,0.3c-0.1,0.1-0.1,0.1-0.2,0.1c-0.1,0-0.2-0.1-0.3-0.2
			c0-0.1-0.1-0.1-0.1-0.1c-0.2,0-0.5,0.5-0.9,1.4c-0.4,0.9-0.7,1.8-1,2.6l-0.1,0.4H37l0.9-3.1c0.2-0.6,0.3-1,0.3-1.2
			c0-0.1,0-0.2,0-0.2c0-0.1-0.1-0.1-0.1-0.1c-0.1,0-0.3,0.1-0.5,0.4C37.3,50.9,37.2,51.1,37.1,51.4z"/>
	</g>
	<g>
		<g>
			<path class="st2" d="M47.9,52c0,0,0-0.5,0-0.5c0-0.1,0.1-0.2,0.3-0.3c0.1-0.1,0.3-0.1,0.5-0.1c2.9,0,9.6,0,12.5,0
				c1.8,0.2,3.4-0.2,5-0.8c1.7-0.6,3.4-1.2,5.2-1.8c1-0.3,2-0.6,3-0.9c1.6-0.4,3.1-0.1,4.5,0.7c1.5,0.9,2.2,2.1,2.2,3.6
				c-0.1,2-2.1,3.7-4.5,4c-1.1,0.1-2.1,0-3.1-0.4c-1.7-0.6-3.5-1.2-5.2-1.8c-1.4-0.5-2.9-1-4.4-1.3c-0.4-0.1-0.9-0.1-1.3-0.2
				c-0.2,0-0.4,0.1-0.5,0.1c-3.2,0-10.2,0-13.4,0C48.1,52.4,48,52.3,47.9,52z M67.7,51.7c0,0,0.1,0,0.1,0c0.8,0.1,1.7,0.3,2.5,0.4
				c2,0.3,3.9,0.6,6,0.6c1.1,0,2.1-0.1,3.2-0.5c0.4-0.1,0.8-0.3,1.2-0.6c-0.3-0.1-0.5-0.3-0.8-0.4c-1-0.4-2.2-0.6-3.4-0.6
				c-1.7-0.1-3.4,0.1-5,0.4C70.2,51.2,68.9,51.5,67.7,51.7z M63.9,52c0.1,0,0.1,0,0.2,0c0.6,0.1,1.3,0.2,1.9,0.4
				c2.3,0.5,4.7,1,7,1.6c1.7,0.4,3.3,0.4,4.9-0.1c0.9-0.2,1.6-0.6,2.2-1.2c0.1-0.2,0.3-0.3,0.4-0.5c-0.1,0-0.1,0-0.1,0
				c-1.2,0.6-2.4,0.8-3.8,0.8c-1.9,0.1-3.8-0.2-5.7-0.5c-1.3-0.2-2.6-0.5-3.9-0.6C66,51.8,64.9,51.9,63.9,52z M80.5,50.8
				c-0.3-0.8-0.8-1.5-1.6-2.1c-1.2-0.8-2.5-1.1-4-0.9c-1,0.2-2,0.5-3,0.8c-1.8,0.6-3.5,1.2-5.3,1.8c-1.3,0.4-2.6,0.8-4,0.9
				c0,0-0.1,0-0.1,0.1c0.2,0,0.3,0,0.4,0c0.9-0.1,1.9-0.2,2.8-0.4c2.6-0.6,5.1-1.1,7.7-1.7c1.8-0.4,3.6-0.3,5.4,0.3
				C79.3,49.8,80,50.2,80.5,50.8z M62.4,52C62.4,52,62.4,52.1,62.4,52C62.5,52.1,62.5,52.1,62.4,52c0.7,0.2,1.4,0.3,2,0.5
				c1.7,0.4,3.3,1,4.9,1.6c1.4,0.5,2.9,1.1,4.4,1.4c0.8,0.2,1.6,0.3,2.5,0.2c1.8-0.3,3.1-1.1,3.9-2.4c0.1-0.2,0.2-0.4,0.3-0.6
				c-0.2,0.1-0.3,0.2-0.4,0.3c-0.1,0.1-0.2,0.2-0.4,0.3c-1.7,1.1-3.7,1.4-5.8,1.1c-1.2-0.2-2.3-0.5-3.5-0.8
				c-2.3-0.5-4.6-1.1-6.9-1.4C63.2,52.1,62.8,52.1,62.4,52z M64.1,51.5C64.1,51.5,64.1,51.5,64.1,51.5c0.6,0,1.2,0.1,1.8,0.1
				c1.1-0.1,2.2-0.2,3.3-0.4c2.1-0.4,4.2-0.7,6.4-0.8c1.2,0,2.4,0.1,3.5,0.4c0.4,0.1,0.8,0.3,1.2,0.4c0-0.1-0.1-0.1-0.1-0.2
				c-0.3-0.4-0.7-0.8-1.2-1c-1.8-0.9-3.7-1.1-5.6-0.6c-2.1,0.5-4.2,1-6.3,1.4C66.2,51.1,65.1,51.3,64.1,51.5z"/>
		</g>
		<path class="st2" d="M47.2,52.3c-0.3,0-0.6-0.3-0.6-0.6c0-0.3,0.3-0.6,0.6-0.6s0.6,0.3,0.6,0.6C47.7,52.1,47.5,52.3,47.2,52.3z
			 M47.2,51.4c-0.2,0-0.4,0.2-0.4,0.4c0,0.2,0.2,0.4,0.4,0.4c0.2,0,0.4-0.2,0.4-0.4C47.5,51.5,47.4,51.4,47.2,51.4z"/>
		<path class="st2" d="M47.7,51.5c0,0,0.1,0.1,0.2-0.1v0.7c0,0-0.1-0.1-0.2,0L47.7,51.5z"/>
	</g>
</g>
</svg>
